<svg width="186" height="57" viewBox="0 0 186 57" fill="none" xmlns="http://www.w3.org/2000/svg">
<path d="M19.8 20.988H7.272L4.68 27H0L11.592 1.368H15.372L27 27H22.356L19.8 20.988ZM18.252 17.388L13.536 6.408L8.82 17.388H18.252ZM47.556 0.503998V27H43.128V24.084C42.576 25.092 41.784 25.884 40.752 26.46C39.72 27.012 38.544 27.288 37.224 27.288C35.664 27.288 34.272 26.892 33.048 26.1C31.824 25.308 30.864 24.192 30.168 22.752C29.496 21.288 29.16 19.62 29.16 17.748C29.16 15.876 29.496 14.232 30.168 12.816C30.84 11.4 31.788 10.308 33.012 9.54C34.236 8.748 35.64 8.352 37.224 8.352C38.52 8.352 39.672 8.628 40.68 9.18C41.712 9.708 42.504 10.464 43.056 11.448V0.503998H47.556ZM38.412 23.76C39.9 23.76 41.052 23.244 41.868 22.212C42.708 21.18 43.128 19.716 43.128 17.82C43.128 15.924 42.72 14.46 41.904 13.428C41.088 12.396 39.936 11.88 38.448 11.88C36.936 11.88 35.76 12.396 34.92 13.428C34.104 14.436 33.696 15.876 33.696 17.748C33.696 19.644 34.104 21.12 34.92 22.176C35.76 23.232 36.924 23.76 38.412 23.76ZM53.1771 8.82H57.6411V27H53.1771V8.82ZM57.8931 0.575999V5.004H52.8891V0.575999H57.8931ZM69.0078 12.204V20.34C69.0078 22.476 70.0038 23.544 71.9958 23.544C72.5478 23.544 73.1478 23.448 73.7958 23.256V26.82C73.0038 27.108 72.0438 27.252 70.9158 27.252C68.8518 27.252 67.2678 26.676 66.1638 25.524C65.0598 24.372 64.5078 22.716 64.5078 20.556V12.204H61.0158V8.82H64.5078V4.392L69.0078 2.88V8.82H73.8318V12.204H69.0078ZM95.1688 8.82L86.7088 28.224C85.7488 30.48 84.5248 32.124 83.0368 33.156C81.5488 34.188 79.7128 34.872 77.5288 35.208L76.5208 31.752C78.2248 31.368 79.4968 30.876 80.3368 30.276C81.2008 29.7 81.8968 28.836 82.4248 27.684L83.0008 26.352L75.4408 8.82H80.1568L85.3768 21.888L90.7048 8.82H95.1688ZM115.299 8.82V27H110.871V24.084C110.319 25.092 109.527 25.884 108.495 26.46C107.463 27.012 106.287 27.288 104.967 27.288C103.383 27.288 101.979 26.904 100.755 26.136C99.5313 25.368 98.5833 24.276 97.9113 22.86C97.2393 21.444 96.9033 19.8 96.9033 17.928C96.9033 16.056 97.2393 14.4 97.9113 12.96C98.6073 11.496 99.5673 10.368 100.791 9.576C102.015 8.76 103.407 8.352 104.967 8.352C106.287 8.352 107.463 8.64 108.495 9.216C109.527 9.768 110.319 10.548 110.871 11.556V8.82H115.299ZM106.191 23.76C107.679 23.76 108.831 23.244 109.647 22.212C110.463 21.18 110.871 19.728 110.871 17.856C110.871 15.936 110.463 14.46 109.647 13.428C108.831 12.396 107.667 11.88 106.155 11.88C104.667 11.88 103.503 12.42 102.663 13.5C101.847 14.556 101.439 16.032 101.439 17.928C101.439 19.8 101.847 21.24 102.663 22.248C103.503 23.256 104.679 23.76 106.191 23.76ZM120.956 15.48H131.792V19.08H120.956V15.48ZM137.749 1.368H142.393V23.184H154.381V27H137.749V1.368ZM175.678 23.22V27H159.874V23.22H165.49V6.696L160.27 9.828V5.688L167.398 1.368H170.098V23.22H175.678ZM5.76 53.162C4.788 53.162 3.852 53.036 2.952 52.784C2.064 52.52 1.326 52.154 0.738 51.686L1.638 49.67C2.874 50.534 4.254 50.966 5.778 50.966C6.594 50.966 7.218 50.84 7.65 50.588C8.094 50.324 8.316 49.958 8.316 49.49C8.316 49.082 8.112 48.764 7.704 48.536C7.308 48.296 6.606 48.068 5.598 47.852C4.47 47.624 3.57 47.348 2.898 47.024C2.238 46.688 1.752 46.286 1.44 45.818C1.14 45.338 0.99 44.744 0.99 44.036C0.99 43.268 1.2 42.578 1.62 41.966C2.052 41.354 2.652 40.88 3.42 40.544C4.188 40.196 5.076 40.022 6.084 40.022C6.996 40.022 7.872 40.154 8.712 40.418C9.552 40.682 10.224 41.042 10.728 41.498L9.828 43.514C8.7 42.65 7.458 42.218 6.102 42.218C5.382 42.218 4.806 42.362 4.374 42.65C3.942 42.938 3.726 43.328 3.726 43.82C3.726 44.108 3.804 44.348 3.96 44.54C4.128 44.732 4.404 44.906 4.788 45.062C5.172 45.206 5.718 45.35 6.426 45.494C8.07 45.854 9.252 46.322 9.972 46.898C10.704 47.474 11.07 48.26 11.07 49.256C11.07 50.456 10.602 51.41 9.666 52.118C8.73 52.814 7.428 53.162 5.76 53.162ZM17.6081 53.144C16.1201 53.144 14.9501 52.724 14.0981 51.884C13.2581 51.044 12.8381 49.898 12.8381 48.446C12.8381 47.498 13.0421 46.664 13.4501 45.944C13.8581 45.212 14.4281 44.648 15.1601 44.252C15.9041 43.844 16.7621 43.64 17.7341 43.64C18.3941 43.64 19.0361 43.742 19.6601 43.946C20.2841 44.15 20.7821 44.426 21.1541 44.774L20.4341 46.664C20.0741 46.376 19.6781 46.154 19.2461 45.998C18.8141 45.83 18.3941 45.746 17.9861 45.746C17.2421 45.746 16.6601 45.974 16.2401 46.43C15.8321 46.874 15.6281 47.528 15.6281 48.392C15.6281 49.268 15.8321 49.934 16.2401 50.39C16.6481 50.834 17.2301 51.056 17.9861 51.056C18.3941 51.056 18.8141 50.978 19.2461 50.822C19.6781 50.654 20.0741 50.426 20.4341 50.138L21.1541 52.028C20.7581 52.376 20.2421 52.652 19.6061 52.856C18.9701 53.048 18.3041 53.144 17.6081 53.144ZM22.8063 43.874H25.5243V53H22.8063V43.874ZM25.6143 39.59V42.146H22.7163V39.59H25.6143ZM36.2957 48.662H30.2837C30.3317 49.514 30.5537 50.138 30.9497 50.534C31.3457 50.918 31.9337 51.11 32.7137 51.11C33.1817 51.11 33.6497 51.032 34.1177 50.876C34.5857 50.72 35.0177 50.492 35.4137 50.192L36.1337 52.028C35.7017 52.376 35.1617 52.652 34.5137 52.856C33.8777 53.048 33.2357 53.144 32.5877 53.144C31.0517 53.144 29.8457 52.724 28.9697 51.884C28.0937 51.032 27.6557 49.874 27.6557 48.41C27.6557 47.486 27.8417 46.664 28.2137 45.944C28.5977 45.212 29.1317 44.648 29.8157 44.252C30.4997 43.844 31.2737 43.64 32.1377 43.64C33.4217 43.64 34.4357 44.06 35.1797 44.9C35.9237 45.728 36.2957 46.85 36.2957 48.266V48.662ZM32.2097 45.548C31.6937 45.548 31.2737 45.698 30.9497 45.998C30.6377 46.298 30.4337 46.736 30.3377 47.312H33.9557C33.8117 46.136 33.2297 45.548 32.2097 45.548ZM43.9962 43.64C46.1562 43.64 47.2362 44.918 47.2362 47.474V53H44.5182V47.6C44.5182 46.964 44.3982 46.502 44.1582 46.214C43.9302 45.914 43.5642 45.764 43.0602 45.764C42.4602 45.764 41.9802 45.956 41.6202 46.34C41.2602 46.724 41.0802 47.24 41.0802 47.888V53H38.3622V46.484C38.3622 45.512 38.3142 44.642 38.2182 43.874H40.7742L40.9542 45.314C41.2782 44.774 41.6982 44.36 42.2142 44.072C42.7422 43.784 43.3362 43.64 43.9962 43.64ZM54.0813 53.144C52.5933 53.144 51.4233 52.724 50.5713 51.884C49.7313 51.044 49.3113 49.898 49.3113 48.446C49.3113 47.498 49.5153 46.664 49.9233 45.944C50.3313 45.212 50.9013 44.648 51.6333 44.252C52.3773 43.844 53.2353 43.64 54.2073 43.64C54.8673 43.64 55.5093 43.742 56.1333 43.946C56.7573 44.15 57.2553 44.426 57.6273 44.774L56.9073 46.664C56.5473 46.376 56.1513 46.154 55.7193 45.998C55.2873 45.83 54.8673 45.746 54.4593 45.746C53.7153 45.746 53.1333 45.974 52.7133 46.43C52.3053 46.874 52.1013 47.528 52.1013 48.392C52.1013 49.268 52.3053 49.934 52.7133 50.39C53.1213 50.834 53.7033 51.056 54.4593 51.056C54.8673 51.056 55.2873 50.978 55.7193 50.822C56.1513 50.654 56.5473 50.426 56.9073 50.138L57.6273 52.028C57.2313 52.376 56.7153 52.652 56.0793 52.856C55.4433 53.048 54.7773 53.144 54.0813 53.144ZM67.4695 48.662H61.4575C61.5055 49.514 61.7275 50.138 62.1235 50.534C62.5195 50.918 63.1075 51.11 63.8875 51.11C64.3555 51.11 64.8235 51.032 65.2915 50.876C65.7595 50.72 66.1915 50.492 66.5875 50.192L67.3075 52.028C66.8755 52.376 66.3355 52.652 65.6875 52.856C65.0515 53.048 64.4095 53.144 63.7615 53.144C62.2255 53.144 61.0195 52.724 60.1435 51.884C59.2675 51.032 58.8295 49.874 58.8295 48.41C58.8295 47.486 59.0155 46.664 59.3875 45.944C59.7715 45.212 60.3055 44.648 60.9895 44.252C61.6735 43.844 62.4475 43.64 63.3115 43.64C64.5955 43.64 65.6095 44.06 66.3535 44.9C67.0975 45.728 67.4695 46.85 67.4695 48.266V48.662ZM63.3835 45.548C62.8675 45.548 62.4475 45.698 62.1235 45.998C61.8115 46.298 61.6075 46.736 61.5115 47.312H65.1295C64.9855 46.136 64.4035 45.548 63.3835 45.548ZM79.6205 53.162C78.6485 53.162 77.7125 53.036 76.8125 52.784C75.9245 52.52 75.1865 52.154 74.5985 51.686L75.4985 49.67C76.7345 50.534 78.1145 50.966 79.6385 50.966C80.4545 50.966 81.0785 50.84 81.5105 50.588C81.9545 50.324 82.1765 49.958 82.1765 49.49C82.1765 49.082 81.9725 48.764 81.5645 48.536C81.1685 48.296 80.4665 48.068 79.4585 47.852C78.3305 47.624 77.4305 47.348 76.7585 47.024C76.0985 46.688 75.6125 46.286 75.3005 45.818C75.0005 45.338 74.8505 44.744 74.8505 44.036C74.8505 43.268 75.0605 42.578 75.4805 41.966C75.9125 41.354 76.5125 40.88 77.2805 40.544C78.0485 40.196 78.9365 40.022 79.9445 40.022C80.8565 40.022 81.7325 40.154 82.5725 40.418C83.4125 40.682 84.0845 41.042 84.5885 41.498L83.6885 43.514C82.5605 42.65 81.3185 42.218 79.9625 42.218C79.2425 42.218 78.6665 42.362 78.2345 42.65C77.8025 42.938 77.5865 43.328 77.5865 43.82C77.5865 44.108 77.6645 44.348 77.8205 44.54C77.9885 44.732 78.2645 44.906 78.6485 45.062C79.0325 45.206 79.5785 45.35 80.2865 45.494C81.9305 45.854 83.1125 46.322 83.8325 46.898C84.5645 47.474 84.9305 48.26 84.9305 49.256C84.9305 50.456 84.4625 51.41 83.5265 52.118C82.5905 52.814 81.2885 53.162 79.6205 53.162ZM95.8605 43.874V53H93.2145V51.668C92.9265 52.148 92.5485 52.514 92.0805 52.766C91.6125 53.018 91.0845 53.144 90.4965 53.144C89.3565 53.144 88.5045 52.826 87.9405 52.19C87.3765 51.554 87.0945 50.594 87.0945 49.31V43.874H89.8125V49.364C89.8125 50.468 90.2865 51.02 91.2345 51.02C91.7985 51.02 92.2545 50.828 92.6025 50.444C92.9505 50.06 93.1245 49.556 93.1245 48.932V43.874H95.8605ZM104.005 43.64C104.785 43.64 105.481 43.844 106.093 44.252C106.705 44.648 107.179 45.212 107.515 45.944C107.863 46.676 108.037 47.51 108.037 48.446C108.037 49.382 107.869 50.21 107.533 50.93C107.197 51.638 106.723 52.184 106.111 52.568C105.499 52.952 104.797 53.144 104.005 53.144C103.369 53.144 102.799 53.012 102.295 52.748C101.791 52.484 101.407 52.118 101.143 51.65V56.888H98.4246V46.484C98.4246 45.512 98.3766 44.642 98.2806 43.874H100.837L101.017 45.386C101.257 44.846 101.641 44.42 102.169 44.108C102.709 43.796 103.321 43.64 104.005 43.64ZM103.231 51.074C103.903 51.074 104.419 50.852 104.779 50.408C105.139 49.952 105.319 49.298 105.319 48.446C105.319 47.594 105.133 46.928 104.761 46.448C104.401 45.968 103.891 45.728 103.231 45.728C102.559 45.728 102.037 45.962 101.665 46.43C101.305 46.886 101.125 47.546 101.125 48.41C101.125 49.274 101.305 49.934 101.665 50.39C102.037 50.846 102.559 51.074 103.231 51.074ZM115.72 43.64C116.5 43.64 117.196 43.844 117.808 44.252C118.42 44.648 118.894 45.212 119.23 45.944C119.578 46.676 119.752 47.51 119.752 48.446C119.752 49.382 119.584 50.21 119.248 50.93C118.912 51.638 118.438 52.184 117.826 52.568C117.214 52.952 116.512 53.144 115.72 53.144C115.084 53.144 114.514 53.012 114.01 52.748C113.506 52.484 113.122 52.118 112.858 51.65V56.888H110.14V46.484C110.14 45.512 110.092 44.642 109.996 43.874H112.552L112.732 45.386C112.972 44.846 113.356 44.42 113.884 44.108C114.424 43.796 115.036 43.64 115.72 43.64ZM114.946 51.074C115.618 51.074 116.134 50.852 116.494 50.408C116.854 49.952 117.034 49.298 117.034 48.446C117.034 47.594 116.848 46.928 116.476 46.448C116.116 45.968 115.606 45.728 114.946 45.728C114.274 45.728 113.752 45.962 113.38 46.43C113.02 46.886 112.84 47.546 112.84 48.41C112.84 49.274 113.02 49.934 113.38 50.39C113.752 50.846 114.274 51.074 114.946 51.074ZM126.211 53.144C125.239 53.144 124.387 52.952 123.655 52.568C122.935 52.184 122.377 51.632 121.981 50.912C121.597 50.192 121.405 49.352 121.405 48.392C121.405 47.432 121.597 46.592 121.981 45.872C122.377 45.152 122.935 44.6 123.655 44.216C124.387 43.832 125.239 43.64 126.211 43.64C127.171 43.64 128.012 43.832 128.732 44.216C129.452 44.6 130.004 45.152 130.388 45.872C130.784 46.592 130.982 47.432 130.982 48.392C130.982 49.352 130.784 50.192 130.388 50.912C130.004 51.632 129.452 52.184 128.732 52.568C128.012 52.952 127.171 53.144 126.211 53.144ZM126.211 51.074C126.884 51.074 127.394 50.852 127.741 50.408C128.101 49.964 128.281 49.292 128.281 48.392C128.281 47.504 128.101 46.838 127.741 46.394C127.394 45.938 126.884 45.71 126.211 45.71C125.527 45.71 125.005 45.938 124.645 46.394C124.285 46.838 124.105 47.504 124.105 48.392C124.105 50.18 124.807 51.074 126.211 51.074ZM138.389 43.658C138.773 43.658 139.097 43.718 139.361 43.838L139.343 46.322C138.899 46.118 138.455 46.016 138.011 46.016C137.291 46.016 136.739 46.214 136.355 46.61C135.983 46.994 135.797 47.534 135.797 48.23V53H133.079V46.484C133.079 45.512 133.031 44.642 132.935 43.874H135.491L135.671 45.44C135.899 44.864 136.253 44.426 136.733 44.126C137.225 43.814 137.777 43.658 138.389 43.658ZM145.138 45.908V49.454C145.138 49.958 145.27 50.33 145.534 50.57C145.798 50.798 146.14 50.912 146.56 50.912C146.824 50.912 147.124 50.87 147.46 50.786V52.892C147.028 53.06 146.506 53.144 145.894 53.144C144.766 53.144 143.902 52.826 143.302 52.19C142.714 51.554 142.42 50.66 142.42 49.508V45.908H140.692V43.874H142.42V41.732L145.138 40.85V43.874H147.46V45.908H145.138ZM160.829 53.162C159.533 53.162 158.399 52.892 157.427 52.352C156.467 51.8 155.729 51.032 155.213 50.048C154.697 49.052 154.439 47.894 154.439 46.574C154.439 45.266 154.697 44.12 155.213 43.136C155.729 42.14 156.467 41.372 157.427 40.832C158.399 40.292 159.533 40.022 160.829 40.022C161.681 40.022 162.491 40.154 163.259 40.418C164.039 40.67 164.675 41.03 165.167 41.498L164.285 43.514C163.709 43.082 163.145 42.77 162.593 42.578C162.053 42.374 161.483 42.272 160.883 42.272C159.731 42.272 158.849 42.638 158.237 43.37C157.625 44.102 157.319 45.17 157.319 46.574C157.319 47.99 157.625 49.07 158.237 49.814C158.849 50.546 159.731 50.912 160.883 50.912C161.483 50.912 162.053 50.816 162.593 50.624C163.145 50.42 163.709 50.102 164.285 49.67L165.167 51.686C164.675 52.154 164.039 52.52 163.259 52.784C162.491 53.036 161.681 53.162 160.829 53.162ZM175.334 48.662H169.322C169.37 49.514 169.592 50.138 169.988 50.534C170.384 50.918 170.972 51.11 171.752 51.11C172.22 51.11 172.688 51.032 173.156 50.876C173.624 50.72 174.056 50.492 174.452 50.192L175.172 52.028C174.74 52.376 174.2 52.652 173.552 52.856C172.916 53.048 172.274 53.144 171.626 53.144C170.09 53.144 168.884 52.724 168.008 51.884C167.132 51.032 166.694 49.874 166.694 48.41C166.694 47.486 166.88 46.664 167.252 45.944C167.636 45.212 168.17 44.648 168.854 44.252C169.538 43.844 170.312 43.64 171.176 43.64C172.46 43.64 173.474 44.06 174.218 44.9C174.962 45.728 175.334 46.85 175.334 48.266V48.662ZM171.248 45.548C170.732 45.548 170.312 45.698 169.988 45.998C169.676 46.298 169.472 46.736 169.376 47.312H172.994C172.85 46.136 172.268 45.548 171.248 45.548ZM177.4 39.752H180.118V53H177.4V39.752ZM182.7 39.752H185.418V53H182.7V39.752Z" fill="white"/>
</svg>
